<svg xmlns="http://www.w3.org/2000/svg" version="1.1" xmlns:xlink="http://www.w3.org/1999/xlink" xmlns:svgjs="http://svgjs.dev/svgjs" width="100%" height="100%" viewBox="0 0 1000 600"><rect width="1000" height="600" x="0" y="0" fill="#dddddd"/><g><circle r="166.66666666666666" cx="339.43471781412757" cy="361.65693694321317" fill="#3a0a21" transform="matrix(0.7235133355377881,0,0,0.723513335537788,0,38.336364697222635)"/><path d="M338.1824696169238 286.65694640882316L338.1824696169238 286.65694640882316Q349.83002565521906 286.65694640882316 358.2790300353296 289.3123477854293Q366.69785939979687 291.9677491620355 372.4914624033012 296.1922513520907Q378.2850654068056 300.44692855778925 381.7853672214228 305.8180813422881Q385.28566903604 311.1590591111437 387.1263449902784 316.6810869738588Q388.99719596016 322.2031148365739 389.5705212573818 327.2725174646402Q390.1438465546036 332.3720951083498 390.1438465546036 336.0836220324698L390.1438465546036 336.0836220324698Q390.1438465546036 337.682897861562 389.90244642945754 339.9761990504492Q389.63087128866835 342.23932522369313 388.03159545957595 344.3515763187208Q386.4323196304836 346.4940024293916 382.9923678471529 347.972578195911Q379.5524160638222 349.4511539624303 373.18548776309603 349.4511539624303L373.18548776309603 349.4511539624303Q371.0732366680684 349.4511539624303 367.8746850098837 349.1795788216411Q364.7063083673422 348.9381786964951 361.71898181866027 347.82170311769477Q358.7618302856216 346.70522753889446 356.6194041749507 344.62315145951Q354.5071530799231 342.5712503957689 354.5071530799231 338.8597234716489L354.5071530799231 338.8597234716489Q354.5071530799231 333.12647049943104 353.8131277201283 328.57004313730005Q353.1191023603335 323.98344075952576 351.3387764373816 320.8150641169843Q349.52827549878657 317.64668747444284 346.32972384060184 315.9267115827775Q343.1613471980604 314.2369107067554 338.1824696169238 314.2369107067554L338.1824696169238 314.2369107067554Q332.96219191064125 314.2369107067554 330.15591545581884 316.40951183306953Q327.3496390009964 318.58211295938366 326.0822883439798 321.14698928906006L326.0822883439798 321.14698928906006Q324.60371257746044 324.2248408846718 324.3924874679577 328.0268928557214L324.3924874679577 328.0268928557214L324.3924874679577 395.28700272452994Q324.60371257746044 399.964130149234 326.0822883439798 403.46443196385127L326.0822883439798 403.46443196385127Q327.3496390009964 406.542283559463 330.15591545581884 409.0769848734961Q332.96219191064125 411.6116861875292 338.1824696169238 411.6116861875292L338.1824696169238 411.6116861875292Q343.1613471980604 411.6116861875292 346.32972384060184 409.5597851237881Q349.52827549878657 407.47770904440375 351.3387764373816 403.9774072297865Q353.1191023603335 400.4771054151693 353.8131277201283 395.9206780530382Q354.5071530799231 391.3642506909072 354.5071530799231 386.3853731097707L354.5071530799231 386.3853731097707Q354.5071530799231 384.78609728067823 355.0503033615016 383.09629640465624Q355.56327862743694 381.37632051299084 357.49447962860506 379.95809477775805Q359.3955056141299 378.53986904252514 363.1070325382499 377.5742685419411Q366.8185594623699 376.608668041357 373.18548776309603 376.608668041357L373.18548776309603 376.608668041357Q379.5524160638222 376.608668041357 382.9923678471529 378.0570687922331Q386.4323196304836 379.475294527466 388.03159545957595 381.34614549734755Q389.63087128866835 383.1868214515859 389.90244642945754 384.9369723588946Q390.1438465546036 386.6871232662032 390.1438465546036 387.2302735477817L390.1438465546036 387.2302735477817Q390.1438465546036 398.90800460172017 386.22109452098084 408.08120935726873Q382.2983424873581 417.2544141128173 375.1468637799074 423.62134241354346Q367.9953850724567 429.9882707142696 358.06780492582686 433.30752243502735Q348.14022477919696 436.65694917142827 336.2512686157557 436.65694917142827L336.2512686157557 436.65694917142827Q334.3502426302308 436.65694917142827 330.0653904088891 436.3551990149958Q325.75036317190404 436.02327384292 320.46973543433495 434.6352231233304Q315.1589326811226 433.27734741938417 309.51620475583456 430.50124598020494Q303.90365184618963 427.755319556669 299.28687445277217 422.80661699117564Q294.6700970593546 417.8880894413256 291.71294552631593 410.4952106087289Q288.725618977634 403.1325067917755 288.725618977634 392.541076300994L288.725618977634 392.541076300994L288.725618977634 333.33769560893387Q288.725618977634 324.64729110367733 290.8680450883048 317.9484376308754Q292.9802961833325 311.2797591737167 296.42024796666317 306.3310566082234Q299.89037476563715 301.4125290583733 304.3261020651952 298.06310232197234Q308.7920043803965 294.7136755855714 313.4691318051005 292.48072442797076L313.4691318051005 292.48072442797076Q324.2717874053847 287.4113217999044 338.1824696169238 286.65694640882316Z " fill="#ffffff" transform="matrix(0.7235133355377881,0,0,0.723513335537788,0,38.336364697222635)"/><path d="M628.1147196865164 286.65694640882316L628.1147196865164 286.65694640882316Q637.2242223216643 286.65694640882316 643.8321516943106 288.7337242116548Q650.4164813191973 290.8105020144865 654.9476328890117 294.11446670080954Q659.4787844588262 297.44203113489203 662.2163551989225 301.64278623607424Q664.9539259390187 305.819941589497 666.3935105523453 310.13869542947646Q667.8566949134313 314.45744926945594 668.3050901208608 318.42220689304355Q668.7534853282904 322.41056426439076 668.7534853282904 325.3133332388032L668.7534853282904 325.3133332388032Q668.7534853282904 326.56411987005407 668.5646873462147 328.35770069977235Q668.3522896163797 330.12768178173104 667.1015029851287 331.7796641248926Q665.8507163538779 333.4552462158136 663.1603451093006 334.6116338560267Q660.4699738647232 335.7680214962398 655.4904270874791 335.7680214962398L655.4904270874791 335.7680214962398Q653.8384447443175 335.7680214962398 651.3368714818158 335.5556237664047Q648.8588979670735 335.36682578432914 646.522522938888 334.4936351172294Q644.2097476584618 333.6204444501298 642.5341655675408 331.99206185472764Q640.8821832243792 330.38727900708506 640.8821832243792 327.48451003267263L640.8821832243792 327.48451003267263Q640.8821832243792 323.000557958377 640.3393890259118 319.4369960467Q639.7965948274446 315.84983438726346 638.4042097096369 313.37186087252115Q636.9882248440699 310.8938873577789 634.4866515815681 309.5487017354902Q632.0086780668257 308.22711586096096 628.1147196865164 308.22711586096096L628.1147196865164 308.22711586096096Q624.0319633241315 308.22711586096096 621.8371867825026 309.9262976996414Q619.6424102408737 311.6254795383218 618.6512208349768 313.63145809787517L618.6512208349768 313.63145809787517Q617.4948331947637 316.0386323693391 617.3296349604475 319.0122005870299L617.3296349604475 319.0122005870299L617.3296349604475 371.61603834284523Q617.4948331947637 375.27399924556 618.6512208349768 378.0115699856563L618.6512208349768 378.0115699856563Q619.6424102408737 380.4187442571203 621.8371867825026 382.40112306891405Q624.0319633241315 384.3835018807079 628.1147196865164 384.3835018807079L628.1147196865164 384.3835018807079Q632.0086780668257 384.3835018807079 634.4866515815681 382.77871903306533Q636.9882248440699 381.15033643766327 638.4042097096369 378.41276569756695Q639.7965948274446 375.67519495747064 640.3393890259118 372.11163304579367Q640.8821832243792 368.5480711341166 640.8821832243792 364.6541127538073L640.8821832243792 364.6541127538073Q640.8821832243792 363.4033261225564 641.3069786840493 362.0817402480272Q641.70817439596 360.7365546257385 643.2185582525648 359.62736648104425Q644.7053423614102 358.5181783363501 647.6081113358226 357.76298640804765Q650.510880310235 357.0077944797453 655.4904270874791 357.0077944797453L655.4904270874791 357.0077944797453Q660.4699738647232 357.0077944797453 663.1603451093006 358.14058237219893Q665.8507163538779 359.2497705168931 667.1015029851287 360.71295487797903Q668.3522896163797 362.1525394913055 668.5646873462147 363.52132486135366Q668.7534853282904 364.8901102314018 668.7534853282904 365.31490569107183L668.7534853282904 365.31490569107183Q668.7534853282904 374.4480080739792 665.6855181195617 381.62233139285223Q662.6175509108332 388.79665471172524 657.0244106918434 393.7762014889693Q651.4312704728536 398.7557482662134 643.6669534599944 401.35172051975286Q635.9026364471351 403.9712925210519 626.6043358299116 403.9712925210519L626.6043358299116 403.9712925210519Q625.1175517210662 403.9712925210519 621.7663875392243 403.73529504345737Q618.3916236096228 403.47569781810347 614.261667751719 402.3901094211687Q610.1081121460556 401.3281207719935 605.6949593150384 399.15694397812405Q601.3054062317806 397.00936693201396 597.6946448245847 393.13900829946414Q594.0838834173887 389.2922494146737 591.7711081369625 383.5103112136083Q589.434733108777 377.7519727603023 589.434733108777 369.46846129673526L589.434733108777 369.46846129673526L589.434733108777 323.1657561926932Q589.434733108777 316.36902883797137 591.1103151996979 311.12988483537333Q592.7622975428594 305.9143405805348 595.4526687874368 302.0439819479849Q598.1666397797737 298.19722306319443 601.6358027004129 295.5776510618955Q605.1285653688116 292.95807906059645 608.7865262715264 291.2116977263971L608.7865262715264 291.2116977263971Q617.2352359694097 287.2469401028094 628.1147196865164 286.65694640882316ZM749.7478196387246 339.42598239895466L749.7478196387246 384.71389834934024Q749.7478196387246 388.2066610177389 749.4882224133707 391.5814249473404Q749.2522249357762 394.9325891291823 748.0014383045253 397.5757608782408Q746.7506516732744 400.2425323750587 744.2726781585321 401.8473152227014Q741.7711048960304 403.47569781810347 737.2871528217348 403.47569781810347L737.2871528217348 403.47569781810347Q732.7324015041609 403.47569781810347 730.1600289983808 401.9417142137392Q727.5876564926007 400.40773060937494 726.3368698613497 398.212954067746Q725.0860832300989 396.0181775261171 724.8028862569854 393.6110032546531Q724.519689283872 391.2038289831891 724.519689283872 389.5282468922682L724.519689283872 389.5282468922682Q723.7644973555696 391.9354211637321 722.3957119855215 394.43699442623387Q721.0269266154734 396.91496794097617 718.8793495693633 398.9209465005295Q716.708172775494 400.9033253123234 713.6874050622843 402.2013114390931Q710.6666373490746 403.47569781810347 706.5838809866896 403.47569781810347L706.5838809866896 403.47569781810347Q702.0291296691156 403.47569781810347 697.4743783515416 401.98891370925804Q692.8960272862082 400.47852985265325 689.2616661312529 397.00936693201396Q685.603705228538 393.5166042636153 683.3145296958713 387.9234640446255Q681.0489539109641 382.33032382563573 681.0489539109641 374.09401185758753L681.0489539109641 374.09401185758753L681.0489539109641 350.04586889070737Q681.0489539109641 341.73875767938074 683.3145296958713 336.14561746039095Q685.603705228538 330.55247724140116 689.2616661312529 327.10691406852146Q692.8960272862082 323.66135089564165 697.4743783515416 322.1745667867962Q702.0291296691156 320.66418293019143 706.5838809866896 320.66418293019143L706.5838809866896 320.66418293019143Q710.6666373490746 320.66418293019143 713.6874050622843 321.9149695614423Q716.708172775494 323.1657561926932 718.8793495693633 325.1481350044871Q721.0269266154734 327.1541135640403 722.3957119855215 329.6320870787826Q723.7644973555696 332.1336603412844 724.519689283872 334.6116338560267L724.519689283872 334.6116338560267Q724.519689283872 330.45807825036337 725.6760769240851 327.72050751026717Q726.8324645642982 324.98293677017085 728.6732448895353 323.37815392252827Q730.490425467013 321.7497713271261 732.7796009996797 321.1361778853804Q735.045176784587 320.4989846958752 737.2871528217348 320.4989846958752L737.2871528217348 320.4989846958752Q741.440708427398 320.4989846958752 743.9422816898998 322.1273672912774Q746.4202552046422 323.73215013891996 747.6946415836525 326.351722140219Q748.9926277104223 328.97129414151806 749.3702236745735 332.41685731439776Q749.7478196387246 335.8624204872776 749.7478196387246 339.42598239895466L749.7478196387246 339.42598239895466ZM706.5838809866896 351.863049468185L706.5838809866896 371.94643481147745Q706.5838809866896 374.1884108486253 706.7726789687651 376.3359878947353Q706.9378772030814 378.50716468860475 707.6694693836243 380.2535460228041Q708.4246613119267 381.97632760924404 709.8642459252533 383.01471651065987Q711.3274302863392 384.0531054120756 713.8998027921193 384.0531054120756L713.8998027921193 384.0531054120756Q717.1329682351641 384.0531054120756 719.1625465424768 382.6135207987491Q721.1921248497895 381.15033643766327 722.3485124900026 378.1295687244536Q723.528499877975 375.1088010112439 723.9768950854046 370.50685019815097Q724.4252902928342 365.8812996372987 724.519689283872 359.5093677422471L724.519689283872 359.5093677422471Q724.519689283872 356.9369952364669 724.0712940764424 353.5622313068655Q723.5992991212535 350.2110671250235 722.4429114810404 347.21389915957326Q721.2865238408273 344.2403309418825 719.2097460379956 342.16355313905086Q717.1329682351641 340.0867753362192 713.8998027921193 340.0867753362192L713.8998027921193 340.0867753362192Q711.3274302863392 340.0867753362192 709.8642459252533 341.12516423763503Q708.4246613119267 342.16355313905086 707.6694693836243 343.8155354822124Q706.9378772030814 345.4911175731334 706.7726789687651 347.59149512372454Q706.5838809866896 349.71547242207504 706.5838809866896 351.863049468185L706.5838809866896 351.863049468185ZM822.5766412243892 332.95965151286515L822.5766412243892 332.95965151286515Q822.5766412243892 339.42598239895466 819.3906752768634 342.3995506166454Q816.2047093293374 345.3967185820956 810.3047723894749 345.3967185820956L810.3047723894749 345.3967185820956Q809.478781217894 345.3967185820956 807.9447976135298 345.5147173208929Q806.4108140091655 345.6563158074495 804.6644326749662 346.17551025815743Q802.9180513407669 346.7183044566248 801.148070258808 347.75669335804065Q799.3544894290898 348.7950822594565 797.8677053202445 350.58866308917476Q796.3573214636396 352.35864417113356 795.4605310487805 355.09621491122977Q794.5401408861619 357.8337856513261 794.5401408861619 361.65694478835707L794.5401408861619 361.65694478835707L794.5401408861619 385.3982910343644Q794.5401408861619 388.79665471172524 794.1625449220107 392.0298201547699Q793.7849489578595 395.26298559781463 792.4633630833303 397.7881586080759Q791.1417772088009 400.31333161833703 788.6402039462993 401.89451471822025Q786.162230431557 403.47569781810347 781.9378755826153 403.47569781810347L781.9378755826153 403.47569781810347Q777.784319976952 403.47569781810347 775.377145705488 401.89451471822025Q772.969971434024 400.31333161833703 771.6719853072543 397.7881586080759Q770.397598928244 395.26298559781463 770.0200029640928 392.0298201547699Q769.6424069999415 388.79665471172524 769.6424069999415 385.3982910343644L769.6424069999415 385.3982910343644L769.6424069999415 338.9303876960061Q769.6424069999415 335.43762502760745 770.0200029640928 332.15726008904386Q770.397598928244 328.87689515048015 771.6719853072543 326.30452264470006Q772.969971434024 323.73215013891996 775.377145705488 322.1981665345557Q777.784319976952 320.66418293019143 781.9378755826153 320.66418293019143L781.9378755826153 320.66418293019143Q786.162230431557 320.66418293019143 788.4514059642236 322.5521627509475Q790.7169817491309 324.4165428239441 791.8025701460656 327.3429115461159Q792.8881585430004 330.29288001604726 793.0533567773165 333.9036414232432Q793.2185550116327 337.5144028304391 793.2185550116327 340.9127665078L793.2185550116327 340.9127665078L794.5401408861619 340.9127665078Q795.696528526375 336.2636161991882 797.6081080948904 332.4876565576762Q799.519687663406 328.71169691616404 801.8324629438321 326.1157246626245Q804.1688379720177 323.4961526613254 806.8120097210762 322.0801677957584Q809.478781217894 320.66418293019143 812.1219529669526 320.66418293019143L812.1219529669526 320.66418293019143Q815.3551184099973 320.66418293019143 817.4082964650695 321.37217536297493Q819.4378747723822 322.0801677957584 820.5942624125953 323.56695190460385Q821.7506500528084 325.07733576120864 822.1754455124785 327.39011104163484Q822.5766412243892 329.7264860698204 822.5766412243892 332.95965151286515ZM888.3019387344591 332.95965151286515L888.3019387344591 332.95965151286515Q888.3019387344591 339.42598239895466 885.0923730391737 342.3995506166454Q881.9064070916479 345.3967185820956 876.0064701517853 345.3967185820956L876.0064701517853 345.3967185820956Q875.1804789802045 345.3967185820956 873.6464953758402 345.5147173208929Q872.112511771476 345.6563158074495 870.3661304372765 346.17551025815743Q868.6197491030773 346.7183044566248 866.8497680211185 347.75669335804065Q865.0561871914002 348.7950822594565 863.5694030825548 350.58866308917476Q862.0826189737095 352.35864417113356 861.1622288110909 355.09621491122977Q860.2418386484723 357.8337856513261 860.2418386484723 361.65694478835707L860.2418386484723 361.65694478835707L860.2418386484723 385.3982910343644Q860.2418386484723 388.79665471172524 859.8878424320806 392.0298201547699Q859.5102464679294 395.26298559781463 858.1886605934001 397.7881586080759Q856.8434749711114 400.31333161833703 854.3655014563691 401.89451471822025Q851.8639281938673 403.47569781810347 847.6395733449256 403.47569781810347L847.6395733449256 403.47569781810347Q843.4860177392624 403.47569781810347 841.0788434677984 401.89451471822025Q838.6716691963345 400.31333161833703 837.3972828173241 397.7881586080759Q836.0992966905544 395.26298559781463 835.7453004741626 392.0298201547699Q835.3677045100114 388.79665471172524 835.3677045100114 385.3982910343644L835.3677045100114 385.3982910343644L835.3677045100114 338.9303876960061Q835.3677045100114 335.43762502760745 835.7453004741626 332.15726008904386Q836.0992966905544 328.87689515048015 837.3972828173241 326.30452264470006Q838.6716691963345 323.73215013891996 841.0788434677984 322.1981665345557Q843.4860177392624 320.66418293019143 847.6395733449256 320.66418293019143L847.6395733449256 320.66418293019143Q851.8639281938673 320.66418293019143 854.153103726534 322.5521627509475Q856.4422792592007 324.4165428239441 857.504267908376 327.3429115461159Q858.5898563053107 330.29288001604726 858.7550545396268 333.9036414232432Q858.920252773943 337.5144028304391 858.920252773943 340.9127665078L858.920252773943 340.9127665078L860.2418386484723 340.9127665078Q861.4218260364448 336.2636161991882 863.3098058572009 332.4876565576762Q865.2213854257163 328.71169691616404 867.5577604539019 326.1157246626245Q869.8705357343281 323.4961526613254 872.5373072311461 322.0801677957584Q875.1804789802045 320.66418293019143 877.8472504770225 320.66418293019143L877.8472504770225 320.66418293019143Q881.080415920067 320.66418293019143 883.1099942273798 321.37217536297493Q885.1395725346927 322.0801677957584 886.2959601749058 323.56695190460385Q887.4759475628782 325.07733576120864 887.877143274789 327.39011104163484Q888.3019387344591 329.7264860698204 888.3019387344591 332.95965151286515ZM909.2113152493322 436.6569431678909L909.2113152493322 436.6569431678909Q899.7478163977926 436.6569431678909 895.7594590264455 433.96657192331355Q891.7711016550983 431.2762006787362 891.7711016550983 426.0370566761382L891.7711016550983 426.0370566761382Q891.7711016550983 423.4646841703581 892.4790940878818 421.7183028361588Q893.1870865206654 419.9955212497188 894.4378731519162 418.90993285278415Q895.688659783167 417.82434445584937 897.2934426308097 417.3759492484199Q898.9218252262118 416.9275540409903 900.7390058036895 416.9275540409903L900.7390058036895 416.9275540409903Q901.9897924349403 416.9275540409903 903.0517810841156 416.9983532842686Q904.1373694810504 417.0927522753064 904.8925614093528 417.0927522753064L904.8925614093528 417.0927522753064Q906.473744509236 417.0927522753064 907.9133291225626 415.20477245455044Q909.3765134836483 413.34039238155384 910.7452988536966 410.5320223981792Q912.1140842237446 407.7000526670451 913.5064693415522 404.46688722400035Q914.9224542071192 401.2337217809557 916.3384390726862 398.4961510408594L916.3384390726862 398.4961510408594L915.0168531981572 395.16858660677684Q912.609678926693 389.12705118035757 909.9429074298753 382.448322564433Q907.2997356808166 375.76959394850854 904.6801636795178 368.92566709826787Q902.0605916782188 362.0817402480272 899.5354186679574 355.261413145546Q897.0102456576963 348.46468579082415 894.9334678548646 342.06915414801307L894.9334678548646 342.06915414801307Q894.013077692246 339.42598239895466 893.3994842505003 336.85360989317445Q892.7858908087546 334.28123738739436 892.7858908087546 331.7796641248926L892.7858908087546 331.7796641248926Q892.7858908087546 329.39608960118807 893.7770802146515 327.3193117983564Q894.7682696205485 325.24253399552487 896.5146509547478 323.73215013891996Q898.2610322889473 322.24536603007454 900.5266080738544 321.37217536297493Q902.8157836065211 320.4989846958752 905.3881561123012 320.4989846958752L905.3881561123012 320.4989846958752Q907.7009313927274 320.4989846958752 909.6597104567618 321.5137738495317Q911.6184895207962 322.50496325542855 913.1524731251604 324.2513445896279Q914.6864567295247 325.9741261760677 915.8428443697378 328.2161022132156Q916.9992320099509 330.45807825036337 917.8252231815317 332.95965151286515L917.8252231815317 332.95965151286515L928.9407043762329 367.95807744013035L939.5605908679856 332.95965151286515Q940.3157827962881 330.6232764846796 941.4721704365012 328.3105012042534Q942.6285580767142 325.9741261760677 944.2097411765974 324.20414509410904Q945.7909242764806 322.41056426439076 947.7733030882744 321.3013761196966Q949.7792816478277 320.168588227243 952.1864559192918 320.168588227243L952.1864559192918 320.168588227243Q954.5936301907557 320.168588227243 956.7884067323846 321.08897838986155Q958.9831832740135 322.0093685524801 960.6115658694155 323.6141514001227Q962.2163487170583 325.24253399552487 963.1839383751958 327.48451003267263Q964.1279282855737 329.7264860698204 964.1279282855737 332.2988585756005L964.1279282855737 332.2988585756005Q964.1279282855737 334.7768320903428 963.514334843828 337.23120585732573Q962.8771416543228 339.6619798765491 961.9803512394637 342.06915414801307L961.9803512394637 342.06915414801307L942.0621641304874 394.8381901381445Q940.3157827962881 399.32214221244016 938.2862044889753 404.18369025088697Q936.2566261816626 409.0452382893338 933.8494519101987 413.67078885018606Q931.4422776387346 418.3199391587978 928.7047068986384 422.4734947644611Q925.9671361585421 426.62705037012444 922.8991689498137 429.7658168221314Q919.8312017410849 432.9281830218977 916.3856385682052 434.7925630948943Q912.9400753953255 436.6569431678909 909.2113152493322 436.6569431678909ZM1041.6294999276095 306.2447370491671L1041.6294999276095 384.71389834934024Q1041.6294999276095 388.2066610177389 1041.3699027022553 391.5814249473404Q1041.1103054769014 394.9325891291823 1039.88311859341 397.5757608782408Q1038.6323319621592 400.2425323750587 1036.1543584474168 401.8473152227014Q1033.652785184915 403.47569781810347 1029.1688331106195 403.47569781810347L1029.1688331106195 403.47569781810347Q1024.6140817930454 403.47569781810347 1022.0417092872653 401.9417142137392Q1019.4693367814853 400.40773060937494 1018.2185501502344 398.212954067746Q1016.9677635189835 396.0181775261171 1016.6845665458701 393.6110032546531Q1016.4013695727567 391.2038289831891 1016.4013695727567 389.5282468922682L1016.4013695727567 389.5282468922682Q1015.6461776444543 391.9354211637321 1014.2773922744061 394.43699442623387Q1012.9086069043581 396.91496794097617 1010.7610298582481 398.9209465005295Q1008.5898530643785 400.9033253123234 1005.569085351169 402.2013114390931Q1002.5483176379593 403.47569781810347 998.4655612755743 403.47569781810347L998.4655612755743 403.47569781810347Q993.9108099580003 403.47569781810347 989.3560586404265 401.98891370925804Q984.777707575093 400.47852985265325 981.1433464201375 397.00936693201396Q977.4853855174227 393.5166042636153 975.196209984756 387.9234640446255Q972.9306341998488 382.33032382563573 972.9306341998488 374.09401185758753L972.9306341998488 374.09401185758753L972.9306341998488 350.04586889070737Q972.9306341998488 341.73875767938074 975.196209984756 336.14561746039095Q977.4853855174227 330.55247724140116 981.1433464201375 327.10691406852146Q984.777707575093 323.66135089564165 989.3560586404265 322.1745667867962Q993.9108099580003 320.66418293019143 998.4655612755743 320.66418293019143L998.4655612755743 320.66418293019143Q1002.5483176379593 320.66418293019143 1005.569085351169 321.9149695614423Q1008.5898530643785 323.1657561926932 1010.7610298582481 325.1481350044871Q1012.9086069043581 327.1541135640403 1014.2773922744061 329.6320870787826Q1015.6461776444543 332.1336603412844 1016.4013695727567 334.6116338560267L1016.4013695727567 334.6116338560267L1016.4013695727567 306.2447370491671Q1016.4013695727567 302.6811751374901 1016.7789655369079 299.23561196461026Q1017.1329617532997 295.7900487917305 1018.4309478800694 293.1704767904315Q1019.7053342590798 290.55090478913246 1022.2541070171005 288.9461219414899Q1024.7792800273617 287.3177393460877 1029.1688331106195 287.3177393460877L1029.1688331106195 287.3177393460877Q1033.3223887162828 287.3177393460877 1035.8003622310252 288.9461219414899Q1038.3019354935268 290.55090478913246 1039.5763218725372 293.1704767904315Q1040.874307999307 295.7900487917305 1041.2519039634583 299.23561196461026Q1041.6294999276095 302.6811751374901 1041.6294999276095 306.2447370491671L1041.6294999276095 306.2447370491671ZM998.4655612755743 351.863049468185L998.4655612755743 371.94643481147745Q998.4655612755743 374.1884108486253 998.6307595098905 376.3359878947353Q998.8195574919661 378.50716468860475 999.5511496725089 380.2535460228041Q1000.3063416008115 381.97632760924404 1001.7459262141379 383.01471651065987Q1003.2091105752238 384.0531054120756 1005.781483081004 384.0531054120756L1005.781483081004 384.0531054120756Q1009.0146485240487 384.0531054120756 1011.0442268313614 382.6135207987491Q1013.0738051386742 381.15033643766327 1014.2301927788873 378.1295687244536Q1015.4101801668598 375.1088010112439 1015.8585753742893 370.50685019815097Q1016.3069705817188 365.8812996372987 1016.4013695727567 359.5093677422471L1016.4013695727567 359.5093677422471Q1016.4013695727567 356.9369952364669 1015.9293746175676 353.5622313068655Q1015.4809794101382 350.2110671250235 1014.3245917699251 347.21389915957326Q1013.168204129712 344.2403309418825 1011.0914263268803 342.16355313905086Q1009.0146485240487 340.0867753362192 1005.781483081004 340.0867753362192L1005.781483081004 340.0867753362192Q1003.2091105752238 340.0867753362192 1001.7459262141379 341.12516423763503Q1000.3063416008115 342.16355313905086 999.5511496725089 343.8155354822124Q998.8195574919661 345.4911175731334 998.6307595098905 347.59149512372454Q998.4655612755743 349.71547242207504 998.4655612755743 351.863049468185L998.4655612755743 351.863049468185ZM1128.4057724391091 351.03705829660424L1128.4057724391091 356.18180330816455Q1128.4057724391091 357.50338918269375 1128.2405742047931 359.29697001241203Q1128.075375970477 361.0905508421302 1126.9425880780232 362.6953336897729Q1125.833399933329 364.32371628517495 1123.4262256618651 365.48010392538805Q1121.019051390401 366.63649156560115 1116.6294983071434 366.63649156560115L1116.6294983071434 366.63649156560115L1083.5898514439125 366.63649156560115L1083.5898514439125 374.61320630829545Q1083.5898514439125 376.5955851200893 1084.1090458946205 378.7431621661993Q1084.604640597569 380.91433896006873 1085.808227733301 382.7315195375464Q1087.0118148690328 384.54870011502413 1088.9941936808268 385.7286875029966Q1090.9765724926206 386.8850751432097 1093.879341467033 386.8850751432097L1093.879341467033 386.8850751432097Q1097.2069059011155 386.8850751432097 1099.000486730834 386.0826837193884Q1100.7704678127925 385.30389204332647 1101.8088567142083 384.1475044031135Q1102.8472456156242 382.9911167629004 1103.673236787205 381.6459311406117Q1104.4992279587857 380.3243452660825 1105.868013328834 379.1679576258694Q1107.236798698882 378.0115699856563 1109.6911724658648 377.209178561835Q1112.1455462328477 376.4303868857731 1116.4643000728272 376.4303868857731L1116.4643000728272 376.4303868857731Q1118.5410778756589 376.4303868857731 1120.4762571919337 376.7607833544054Q1122.435036255968 377.09117982303775 1123.9218203648136 378.0115699856563Q1125.4086044736591 378.9083604005154 1126.3289946362775 380.53674299591745Q1127.2493847988962 382.14152584356015 1127.2493847988962 384.71389834934024L1127.2493847988962 384.71389834934024Q1127.2493847988962 390.11824058625444 1123.8510211215353 393.72900199345037Q1120.429057696415 397.3397634006463 1115.2843126848545 399.48734044675626Q1110.1395676732946 401.6585172406257 1104.145231742394 402.5553076554849Q1098.127296063734 403.47569781810347 1092.8881520611362 403.47569781810347L1092.8881520611362 403.47569781810347Q1085.9970257153764 403.3812988270657 1079.790292054641 401.72931648390414Q1073.559958646146 400.0773341407426 1068.792809598737 396.41937323802773Q1064.025660551328 392.76141233531285 1061.193690820194 386.8850751432097Q1058.3853208368193 380.98513820334705 1058.3853208368193 372.442029514426L1058.3853208368193 372.442029514426L1058.3853208368193 353.0194371083981Q1058.3853208368193 345.1607211045011 1060.2497009098158 339.6619798765491Q1062.1140809828125 334.18683839635656 1065.0876492005032 330.55247724140116Q1068.0848171659534 326.8945163386864 1071.8135773119466 324.8649380313736Q1075.5423374579398 322.8353597240609 1079.3654965949709 321.8441703181639Q1083.1886557320017 320.82938116450754 1086.6342189048817 320.5933836869131Q1090.0797820777614 320.3337864615591 1092.5577555925038 320.3337864615591L1092.5577555925038 320.3337864615591Q1100.9356660471085 320.3337864615591 1106.8828024824902 321.8441703181639Q1112.8063391701123 323.3309544270093 1116.7946965414594 325.7381286984733Q1120.7594541650474 328.1453029699372 1123.0958291932327 331.28406942194414Q1125.4086044736591 334.4464356217106 1126.5885918616314 337.7975998035525Q1127.7449795018447 341.172363733154 1128.075375970477 344.6179269060337Q1128.4057724391091 348.0634900789135 1128.4057724391091 351.03705829660424L1128.4057724391091 351.03705829660424ZM1083.5898514439125 348.39388654754583L1083.5898514439125 354.1994244963707L1104.3340297244695 354.1994244963707Q1104.3340297244695 350.2818663683019 1104.145231742394 347.2610986550922Q1103.932834012559 344.2403309418825 1102.894445111143 342.16355313905086Q1101.8560562097273 340.0867753362192 1099.6612796680984 339.00118693928454Q1097.4665031264694 337.93919829010923 1093.3837467640844 337.93919829010923L1093.3837467640844 337.93919829010923Q1089.9853830867237 337.93919829010923 1088.0502037704487 339.00118693928454Q1086.0914247064143 340.0867753362192 1085.1002353005174 341.71515793162126Q1084.1090458946205 343.31994077926396 1083.8494486692664 345.1607211045011Q1083.5898514439125 346.97790168197884 1083.5898514439125 348.39388654754583L1083.5898514439125 348.39388654754583ZM1154.4598939655425 436.6569431678909L1154.4598939655425 436.6569431678909Q1144.996395114003 436.6569431678909 1141.0080377426557 433.96657192331355Q1137.043280119068 431.2762006787362 1137.043280119068 426.0370566761382L1137.043280119068 426.0370566761382Q1137.043280119068 423.4646841703581 1137.7276728040922 421.7183028361588Q1138.4356652368756 419.9955212497188 1139.6864518681264 418.90993285278415Q1140.9372384993774 417.82434445584937 1142.5420213470202 417.3759492484199Q1144.1704039424221 416.9275540409903 1145.9875845198999 416.9275540409903L1145.9875845198999 416.9275540409903Q1147.2383711511507 416.9275540409903 1148.3239595480854 416.9983532842686Q1149.3859481972609 417.0927522753064 1150.1411401255632 417.0927522753064L1150.1411401255632 417.0927522753064Q1151.7223232254464 417.0927522753064 1153.1619078387728 415.20477245455044Q1154.6250921998587 413.34039238155384 1155.993877569907 410.5320223981792Q1157.362662939955 407.7000526670451 1158.778647805522 404.46688722400035Q1160.1710329233297 401.2337217809557 1161.5870177888967 398.4961510408594L1161.5870177888967 398.4961510408594L1160.2654319143674 395.16858660677684Q1157.8582576429035 389.12705118035757 1155.1914861460855 382.448322564433Q1152.548314397027 375.76959394850854 1149.928742395728 368.92566709826787Q1147.309170394429 362.0817402480272 1144.7839973841678 355.261413145546Q1142.2588243739065 348.46468579082415 1140.182046571075 342.06915414801307L1140.182046571075 342.06915414801307Q1139.2616564084565 339.42598239895466 1138.6480629667108 336.85360989317445Q1138.034469524965 334.28123738739436 1138.034469524965 331.7796641248926L1138.034469524965 331.7796641248926Q1138.034469524965 329.39608960118807 1139.025658930862 327.3193117983564Q1140.0168483367588 325.24253399552487 1141.763229670958 323.73215013891996Q1143.5096110051575 322.24536603007454 1145.7751867900647 321.37217536297493Q1148.0643623227315 320.4989846958752 1150.6367348285116 320.4989846958752L1150.6367348285116 320.4989846958752Q1152.9731098566972 320.4989846958752 1154.9082891729722 321.5137738495317Q1156.8670682370066 322.50496325542855 1158.4010518413706 324.2513445896279Q1159.9350354457351 325.9741261760677 1161.091423085948 328.2161022132156Q1162.2478107261613 330.45807825036337 1163.0738018977422 332.95965151286515L1163.0738018977422 332.95965151286515L1174.2128828402028 367.95807744013035L1184.8327693319554 332.95965151286515Q1185.5643615124984 330.6232764846796 1186.7207491527115 328.3105012042534Q1187.900736540684 325.9741261760677 1189.4583198928078 324.20414509410904Q1191.0395029926908 322.41056426439076 1193.0454815522444 321.3013761196966Q1195.0278603640381 320.168588227243 1197.4350346355022 320.168588227243L1197.4350346355022 320.168588227243Q1199.842208906966 320.168588227243 1202.036985448595 321.08897838986155Q1204.2317619902237 322.0093685524801 1205.8601445856261 323.6141514001227Q1207.4649274332687 325.24253399552487 1208.432517091406 327.48451003267263Q1209.3765070017841 329.7264860698204 1209.3765070017841 332.2988585756005L1209.3765070017841 332.2988585756005Q1209.3765070017841 334.7768320903428 1208.7629135600382 337.23120585732573Q1208.1257203705331 339.6619798765491 1207.2289299556742 342.06915414801307L1207.2289299556742 342.06915414801307L1187.3107428466978 394.8381901381445Q1185.5643615124984 399.32214221244016 1183.5347832051857 404.18369025088697Q1181.5052048978728 409.0452382893338 1179.0980306264091 413.67078885018606Q1176.690856354945 418.3199391587978 1173.9532856148487 422.4734947644611Q1171.2157148747524 426.62705037012444 1168.1477476660239 429.7658168221314Q1165.0797804572953 432.9281830218977 1161.6342172844156 434.7925630948943Q1158.188654111536 436.6569431678909 1154.4598939655425 436.6569431678909Z " fill="#3a0a21" transform="matrix(0.7235133355377881,0,0,0.723513335537788,0,38.336364697222635)"/></g></svg>